<svg width="57" height="25" viewBox="0 0 57 25" fill="none" xmlns="http://www.w3.org/2000/svg">
<rect x="0.5" y="0.5" width="56" height="24" rx="12" fill="white"/>
<rect x="0.5" y="0.5" width="56" height="24" rx="12" stroke="#F4A154"/>
<path d="M19.1787 12.6055V13.7012H15.376V16.9883H14.0225V13.7012H10.2627V12.6055H19.1787ZM18.3838 7.72852V8.80273H15.5371C15.6714 9.75879 16.751 10.7202 18.7598 10.9619L18.2656 12.0361C16.5469 11.8052 15.3169 11.0693 14.7314 10.0596C14.1299 11.0693 12.9106 11.8052 11.208 12.0361L10.7031 10.9619C12.6797 10.7202 13.77 9.75879 13.9258 8.80273H11.0684V7.72852H18.3838ZM28.707 12.0469V13.1318H25.0225V14.8184H23.6689V13.1318H19.7588V12.0469H28.707ZM27.5576 7.64258V11.2412H20.876V7.64258H27.5576ZM22.2188 8.70605V10.1777H26.2148V8.70605H22.2188ZM27.7188 15.7207V16.8164H20.8115V13.9697H22.1758V15.7207H27.7188ZM38.2246 14.7217V15.8496H29.2764V14.7217H31.2744V12.3262C30.5171 11.875 30.0605 11.1821 30.0605 10.3174C30.0605 8.73828 31.6074 7.68555 33.7344 7.68555C35.8506 7.68555 37.4082 8.73828 37.4189 10.3174C37.4136 11.1606 36.9678 11.8481 36.2373 12.3047V14.7217H38.2246ZM33.7344 8.77051C32.3379 8.77051 31.4141 9.3291 31.4141 10.3174C31.4141 11.2734 32.3379 11.8643 33.7344 11.8643C35.1201 11.8643 36.0547 11.2734 36.0654 10.3174C36.0547 9.3291 35.1201 8.77051 33.7344 8.77051ZM32.6279 14.7217H34.8516V12.8203C34.5024 12.8901 34.1265 12.9277 33.7344 12.9277C33.3423 12.9277 32.9717 12.8955 32.6279 12.8203V14.7217ZM44.3584 8.2334V9.30762H42.3818C42.3926 10.312 43.1338 11.3325 44.7021 11.7354L44.0684 12.7881C42.9565 12.5088 42.1724 11.8911 41.7266 11.0908C41.3022 12.0039 40.5181 12.7183 39.3633 13.0459L38.7188 11.9824C40.2871 11.5366 41.0068 10.4194 41.0176 9.30762H39.0518V8.2334H41.0176V7.16992H42.4033V8.2334H44.3584ZM47.0225 7.21289V13.1211H45.6582V10.9297H44.0684V9.83398H45.6582V7.21289H47.0225ZM43.6816 13.2822C45.7656 13.293 47.0439 13.9482 47.0547 15.1191C47.0439 16.3008 45.7656 16.9883 43.6816 16.9883C41.6084 16.9883 40.3193 16.3008 40.3193 15.1191C40.3193 13.9482 41.6084 13.293 43.6816 13.2822ZM43.6816 14.335C42.3818 14.335 41.6836 14.5928 41.6836 15.1191C41.6836 15.6562 42.3818 15.9463 43.6816 15.9463C45.0029 15.9463 45.6904 15.6562 45.6904 15.1191C45.6904 14.5928 45.0029 14.335 43.6816 14.335Z" fill="#F4A155"/>
</svg>
